<svg width="21" height="20" viewBox="0 0 21 20" fill="none" xmlns="http://www.w3.org/2000/svg">
<path d="M13.742 18.75C14.5474 18.75 15.2004 18.0971 15.2004 17.2917C15.2004 16.4863 14.5474 15.8333 13.742 15.8333C12.9366 15.8333 12.2837 16.4863 12.2837 17.2917C12.2837 18.0971 12.9366 18.75 13.742 18.75Z" fill="white"/>
<path d="M7.07503 18.75C7.88043 18.75 8.53337 18.0971 8.53337 17.2917C8.53337 16.4863 7.88043 15.8333 7.07503 15.8333C6.26962 15.8333 5.6167 16.4863 5.6167 17.2917C5.6167 18.0971 6.26962 18.75 7.07503 18.75Z" fill="white"/>
<path d="M4.23337 3.28332L4.0667 5.32499C4.03337 5.71666 4.3417 6.04166 4.73337 6.04166H17.4917C17.8417 6.04166 18.1334 5.77499 18.1584 5.42499C18.2667 3.94999 17.1417 2.74999 15.6667 2.74999H5.42503C5.3417 2.38332 5.17503 2.03332 4.9167 1.74166C4.50003 1.29999 3.9167 1.04166 3.3167 1.04166H1.8667C1.52503 1.04166 1.2417 1.32499 1.2417 1.66666C1.2417 2.00832 1.52503 2.29166 1.8667 2.29166H3.3167C3.57503 2.29166 3.8167 2.39999 3.9917 2.58332C4.1667 2.77499 4.25003 3.02499 4.23337 3.28332Z" fill="white"/>
<path d="M17.2921 7.29166H4.50874C4.15874 7.29166 3.8754 7.55832 3.84207 7.89999L3.54207 11.525C3.4254 12.95 4.54207 14.1667 5.96707 14.1667H15.2338C16.4838 14.1667 17.5838 13.1417 17.6754 11.8917L17.9504 7.99999C17.9838 7.61666 17.6838 7.29166 17.2921 7.29166Z" fill="white"/>
</svg>
