<svg width="21" height="20" viewBox="0 0 21 20" fill="none" xmlns="http://www.w3.org/2000/svg">
<path d="M14.7334 10.333C12.5251 10.333 10.7334 12.1247 10.7334 14.333C10.7334 15.083 10.9417 15.7913 11.3167 16.3913C12.0084 17.5497 13.2751 18.333 14.7334 18.333C16.1917 18.333 17.4667 17.5497 18.1501 16.3913C18.5167 15.7913 18.7334 15.083 18.7334 14.333C18.7334 12.1247 16.9417 10.333 14.7334 10.333ZM16.7167 13.808L14.5834 15.7747C14.4667 15.883 14.3084 15.9413 14.1584 15.9413C14.0001 15.9413 13.8417 15.883 13.7167 15.758L12.7334 14.7747C12.4917 14.533 12.4917 14.133 12.7334 13.8913C12.9751 13.6497 13.3751 13.6497 13.6167 13.8913L14.1751 14.4497L15.8667 12.883C16.1167 12.6497 16.5167 12.6663 16.7501 12.9163C16.9834 13.1747 16.9667 13.5747 16.7167 13.808Z" fill="white"/>
<path d="M18.7331 7.27552C18.7331 8.26719 18.5747 9.18385 18.2997 10.0339C18.2497 10.2089 18.0414 10.2589 17.8914 10.1505C16.9831 9.47552 15.8747 9.11719 14.7331 9.11719C11.8414 9.11719 9.48308 11.4755 9.48308 14.3672C9.48308 15.2672 9.71641 16.1505 10.1581 16.9339C10.2914 17.1672 10.1331 17.4672 9.88308 17.3755C7.87475 16.6922 3.81641 14.2005 2.49975 10.0339C2.22475 9.18385 2.06641 8.26719 2.06641 7.27552C2.06641 4.70052 4.14141 2.61719 6.69975 2.61719C8.20808 2.61719 9.55808 3.35052 10.3997 4.47552C11.2414 3.35052 12.5914 2.61719 14.0997 2.61719C16.6581 2.61719 18.7331 4.70052 18.7331 7.27552Z" fill="white"/>
</svg>
