<svg width="17" height="17" viewBox="0 0 17 17" fill="none" xmlns="http://www.w3.org/2000/svg">
<path d="M13.8311 3.87696C12.4569 2.50279 11.1111 2.46737 9.70147 3.87696L8.84439 4.73404C8.77355 4.80487 8.74522 4.91821 8.77355 5.01737C9.31189 6.89446 10.8136 8.39612 12.6906 8.93446C12.719 8.94154 12.7473 8.94862 12.7756 8.94862C12.8536 8.94862 12.9244 8.92029 12.9811 8.86362L13.8311 8.00654C14.5323 7.31237 14.8723 6.63946 14.8723 5.95946C14.8794 5.25821 14.5394 4.57821 13.8311 3.87696Z" fill="#999999"/>
<path d="M11.4153 9.57912C11.2099 9.47996 11.0116 9.38079 10.8203 9.26746C10.6645 9.17537 10.5158 9.07621 10.367 8.96996C10.2466 8.89204 10.1049 8.77871 9.9703 8.66537C9.95614 8.65829 9.90655 8.61579 9.84989 8.55912C9.61614 8.36079 9.35405 8.10579 9.1203 7.82246C9.09905 7.80829 9.06364 7.75871 9.01406 7.69496C8.94322 7.60996 8.82281 7.46829 8.71656 7.30537C8.63156 7.19912 8.53239 7.04329 8.4403 6.88746C8.32697 6.69621 8.22781 6.50496 8.12864 6.30662C7.99862 6.02801 7.63294 5.94524 7.41553 6.16265L3.43239 10.1458C3.3403 10.2379 3.2553 10.415 3.23405 10.5354L2.85155 13.2483C2.78072 13.73 2.9153 14.1833 3.2128 14.4879C3.4678 14.7358 3.82197 14.8704 4.20447 14.8704C4.28947 14.8704 4.37447 14.8633 4.45947 14.8491L7.17947 14.4666C7.30697 14.4454 7.48406 14.3604 7.56906 14.2683L11.5588 10.2786C11.7719 10.0655 11.6918 9.69893 11.4153 9.57912Z" fill="#999999"/>
</svg>
