<svg width="24" height="24" viewBox="0 0 24 24" fill="none" xmlns="http://www.w3.org/2000/svg">
<path d="M19.861 8.0896C19.861 8.5096 19.831 8.9196 19.781 9.3096C19.321 9.1096 18.821 8.9996 18.291 8.9996C17.071 8.9996 15.991 9.58959 15.321 10.4896C14.641 9.58959 13.561 8.9996 12.341 8.9996C10.291 8.9996 8.63098 10.6696 8.63098 12.7396C8.63098 15.4196 10.051 17.4696 11.631 18.8596C11.581 18.8896 11.531 18.8996 11.481 18.9196C11.181 19.0296 10.681 19.0296 10.381 18.9196C7.79098 18.0296 2.00098 14.3496 2.00098 8.0896C2.00098 5.3296 4.22097 3.09961 6.96097 3.09961C8.59097 3.09961 10.031 3.8796 10.931 5.0896C11.841 3.8796 13.281 3.09961 14.901 3.09961C17.641 3.09961 19.861 5.3296 19.861 8.0896Z" fill="#0071D8" stroke="#0071D8" stroke-width="1.4" stroke-linecap="round" stroke-linejoin="round"/>
<path d="M22.0018 12.74C22.0018 17.42 17.6718 20.18 15.7318 20.84C15.5018 20.92 15.1318 20.92 14.9018 20.84C14.0718 20.56 12.8018 19.89 11.6318 18.86C10.0518 17.47 8.63184 15.42 8.63184 12.74C8.63184 10.67 10.2918 9 12.3418 9C13.5618 9 14.6418 9.58999 15.3218 10.49C15.9918 9.58999 17.0718 9 18.2918 9C18.8218 9 19.3218 9.11 19.7818 9.31C21.0918 9.89 22.0018 11.2 22.0018 12.74Z" fill="#4D9CE4" stroke="#4D9CE4" stroke-width="1.4" stroke-linecap="round" stroke-linejoin="round"/>
</svg>
