<svg width="90" height="12" viewBox="0 0 90 12" fill="none" xmlns="http://www.w3.org/2000/svg">
<g clip-path="url(#clip0_16_368)">
<path d="M50.252 4.04475C50.1648 4.05229 50.0982 4.06279 50.0315 4.06279C49.0188 4.06607 48.0057 4.0641 46.993 4.07427C46.8417 4.07558 46.7579 4.01458 46.6708 3.83453C46.438 3.3544 46.0515 3.19895 45.6649 3.08843C44.5426 2.76768 43.4104 2.83295 42.2798 2.98217C42.089 3.00709 41.8882 3.08843 41.7245 3.21863C41.6231 3.29963 41.5275 3.52461 41.5321 3.67908C41.5363 3.81289 41.6688 4.00802 41.7738 4.05426C42.037 4.17036 42.3145 4.25563 42.5905 4.28613C43.9007 4.43076 45.212 4.5544 46.5232 4.68263C47.4199 4.77052 48.3177 4.85514 49.1675 5.30083C49.8181 5.64224 50.3463 6.15975 50.56 7.12559C50.8378 8.38134 50.5011 9.7099 49.7119 10.4629C49.0936 11.0529 48.3923 11.3566 47.6644 11.5543C46.3837 11.9023 45.0853 11.9754 43.7839 11.9197C42.5724 11.8679 41.3721 11.6911 40.2354 11.0667C39.3357 10.5721 38.5842 9.83453 38.1612 8.60042C38.1042 8.4348 38.0697 8.25442 38.0316 8.07831C37.9924 7.89662 38.0451 7.80971 38.1883 7.81004C39.2464 7.81234 40.3045 7.80873 41.3626 7.81857C41.431 7.81922 41.5299 7.89105 41.5618 7.9691C41.7907 8.53024 42.1864 8.72898 42.6065 8.84081C43.7344 9.14057 44.8736 9.15828 46.0151 9.02316C46.2772 8.99233 46.5384 8.93067 46.7965 8.85885C46.9032 8.82901 47.0126 8.75751 47.0997 8.66732C47.3626 8.39544 47.325 7.91991 47.0157 7.76117C46.7857 7.64311 46.5375 7.55948 46.2927 7.52964C45.4576 7.42895 44.6201 7.36074 43.7839 7.27678C42.9101 7.18889 42.0338 7.13182 41.1642 6.99703C40.4436 6.8852 39.7444 6.62939 39.0965 6.15254C37.8681 5.24869 37.7551 3.12089 38.7374 1.93762C39.2746 1.29056 39.9059 0.892742 40.5853 0.626112C42.3484 -0.0662079 44.1474 -0.123601 45.954 0.159756C47.0705 0.334885 48.1506 0.713349 49.0859 1.62704C49.6363 2.16457 50.0141 2.87427 50.2331 3.74172C50.2455 3.7896 50.2544 3.84011 50.2587 3.89061C50.2621 3.92931 50.2558 3.96965 50.252 4.04475Z" fill="url(#paint0_linear_16_368)"/>
<path d="M5.46187 6.15567C5.46187 6.14977 5.46187 6.14419 5.46187 6.13829C6.17936 6.13829 6.89783 6.16485 7.61435 6.12747C7.98228 6.10812 8.36301 6.0035 8.5856 5.52534C9.02065 4.59098 8.63992 3.42148 7.84443 3.22536C7.77007 3.207 7.69451 3.19159 7.61942 3.19093C6.1994 3.17552 4.77961 3.16371 3.35983 3.14698C3.19904 3.14501 3.1778 3.26603 3.17853 3.44215C3.18142 4.25056 3.18528 5.05898 3.17611 5.8674C3.17346 6.10221 3.23502 6.16223 3.39942 6.15993C4.08698 6.14977 4.77431 6.15567 5.46187 6.15567ZM4.38127 0.264563C5.68904 0.264563 6.99729 0.239309 8.30459 0.273746C9.16232 0.296046 10.0073 0.476422 10.754 1.11725C11.4396 1.70561 11.7656 2.59667 11.8937 3.65204C12.0053 4.57032 11.9628 5.46696 11.712 6.33736C11.4036 7.40618 10.8187 8.08407 10.0421 8.48811C9.3383 8.85378 8.60151 8.92528 7.85915 8.92889C6.40774 8.93545 4.95609 8.93053 3.50468 8.93118C3.18697 8.93118 3.18649 8.93282 3.18625 9.35097C3.18601 10.0679 3.1819 10.7848 3.18891 11.5014C3.19084 11.7149 3.158 11.8152 2.97767 11.8129C2.05544 11.8028 1.13298 11.8044 0.210762 11.812C0.0552875 11.8133 0.000485318 11.7513 0.000485318 11.5335C0.00458944 7.86761 0.00507208 4.2017 2.28463e-06 0.535784C-0.000480553 0.288176 0.0755667 0.253411 0.230799 0.254068C1.61437 0.259971 2.9977 0.257675 4.38103 0.257675C4.38103 0.259971 4.38103 0.262266 4.38127 0.264563Z" fill="white"/>
<path d="M82.2164 6.88339H82.4977C83.0867 6.88339 83.6765 6.88339 84.2655 6.88339C85.0819 6.88339 85.8976 6.8847 86.714 6.88011C86.7759 6.87978 86.8707 6.85814 86.89 6.80599C86.9109 6.74696 86.8835 6.60856 86.8426 6.56396C86.6698 6.37571 86.5002 6.14844 86.2985 6.04644C85.5038 5.64437 84.6745 5.58599 83.8428 5.75489C83.4443 5.83557 83.0513 5.99495 82.6688 6.17271C82.4607 6.26978 82.2823 6.4823 82.2164 6.88339ZM82.173 8.61337C82.3554 9.09842 82.6351 9.31651 82.9308 9.4372C84.0405 9.89011 85.1599 9.90323 86.2777 9.46934C86.3066 9.45819 86.3379 9.44704 86.3612 9.42244C86.6811 9.07481 87.0571 9.1017 87.4356 9.10695C88.1685 9.11777 88.9013 9.11023 89.6342 9.11023H89.9259C89.86 9.28306 89.8238 9.4008 89.7732 9.50509C89.3063 10.4618 88.6008 10.9612 87.831 11.3049C86.3934 11.9461 84.914 12.0278 83.4185 11.8589C82.6327 11.77 81.8596 11.6011 81.1252 11.198C80.4092 10.8055 79.7941 10.2364 79.4189 9.28437C78.9216 8.02108 79.122 6.41441 79.8824 5.41742C80.5337 4.56342 81.3317 4.10788 82.1923 3.82781C83.4925 3.40539 84.8095 3.33292 86.1298 3.59233C87.2018 3.80321 88.2207 4.22168 89.046 5.25114C89.7258 6.09859 89.9781 7.1779 89.9998 8.39102C90.0046 8.63666 89.8921 8.6137 89.7764 8.6137C88.6884 8.61337 87.6003 8.61337 86.5123 8.61337H82.4993H82.173Z" fill="url(#paint1_linear_16_368)"/>
<path d="M26.1018 6.09743C25.4297 6.13187 24.8725 6.17548 24.3775 6.53918C24.1484 6.70775 23.907 6.94849 23.7778 7.24266C23.5202 7.82773 23.7421 8.50071 24.2708 8.84474C25.0653 9.36193 25.918 9.42523 26.7724 9.29175C27.2069 9.22386 27.6386 9.04414 28.0532 8.84474C28.3356 8.70896 28.5386 8.39839 28.5908 7.96351C28.6669 7.3312 28.4532 6.86584 27.9302 6.53165C27.3117 6.13613 26.6488 6.10268 26.1018 6.09743ZM26.1488 11.998C25.0593 11.9216 23.9864 11.7941 22.9512 11.3234C22.2926 11.024 21.6874 10.5986 21.2248 9.86829C20.334 8.46135 20.4323 6.52575 21.4515 5.28344C22.0988 4.49437 22.874 4.07425 23.7066 3.8086C24.7522 3.47474 25.8144 3.39111 26.8808 3.48261C28.1087 3.58789 29.3124 3.85845 30.376 4.7833C31.0298 5.35166 31.5207 6.11087 31.6442 7.17575C31.784 8.38198 31.4955 9.41275 30.8118 10.2267C30.119 11.0522 29.2796 11.4513 28.3952 11.6557C27.6535 11.8269 26.8982 11.8882 26.1488 11.998Z" fill="white"/>
<path d="M64.6584 6.0948C64.425 6.14169 64.0433 6.20499 63.6664 6.30075C63.5059 6.34142 63.3359 6.41357 63.2041 6.53721C62.9859 6.74153 62.7345 6.95077 62.6059 7.24527C62.3495 7.83166 62.5723 8.50135 63.1017 8.84604C63.8892 9.35798 64.7323 9.40061 65.582 9.30485C66.0328 9.25402 66.4821 9.16153 66.8874 8.85555C67.153 8.65516 67.3685 8.39542 67.42 7.96022C67.4946 7.32857 67.28 6.86353 66.757 6.53032C66.138 6.13579 65.4754 6.10234 64.6584 6.0948ZM64.9599 12C63.8697 11.9226 62.7961 11.7921 61.7626 11.3165C60.9065 10.9223 60.1492 10.3235 59.7081 9.19564C59.1985 7.89233 59.4401 6.31125 60.2771 5.28703C60.9232 4.49633 61.6986 4.07556 62.531 3.80958C63.5766 3.47539 64.6387 3.39176 65.7052 3.48195C66.8947 3.58264 68.0629 3.83975 69.1054 4.69868C69.742 5.22341 70.247 5.91081 70.4266 6.93371C70.6562 8.2403 70.3718 9.33469 69.643 10.2212C68.9566 11.0558 68.1129 11.4503 67.2286 11.6543C66.4796 11.8272 65.7166 11.8892 64.9599 12Z" fill="url(#paint2_linear_16_368)"/>
<path d="M57.1849 3.71503C57.5401 3.71536 57.8951 3.72356 58.2503 3.71175C58.4287 3.70585 58.491 3.80489 58.4893 4.03873C58.484 4.76515 58.4818 5.49191 58.4908 6.21834C58.4939 6.46955 58.4162 6.5299 58.2469 6.52793C57.5441 6.5194 56.8413 6.53186 56.1389 6.51973C55.9512 6.51678 55.887 6.59713 55.8943 6.85261C55.9074 7.3124 55.895 7.77351 55.8993 8.23397C55.9045 8.781 56.0456 9.06829 56.4392 9.11683C56.9165 9.17553 57.4012 9.16274 57.8812 9.13323C58.5706 9.09059 58.4461 8.96827 58.4572 9.82292C58.4629 10.2834 58.4514 10.7441 58.4608 11.2046C58.4654 11.4332 58.4208 11.5801 58.2392 11.6119C57.6786 11.71 57.1197 11.8671 56.5572 11.8956C55.9341 11.9271 55.2999 11.914 54.6848 11.791C53.8574 11.625 53.18 11.0938 52.941 9.90065C52.8727 9.5599 52.8577 9.1939 52.8502 8.83839C52.8365 8.17362 52.8408 7.50787 52.8486 6.84277C52.8512 6.60795 52.7979 6.51251 52.6156 6.52006C52.2532 6.53514 51.8901 6.51711 51.5277 6.5276C51.3665 6.53252 51.295 6.4666 51.2974 6.23277C51.3047 5.49584 51.3027 4.75892 51.2986 4.022C51.2974 3.80292 51.3573 3.70716 51.5258 3.71241C51.8657 3.7229 52.2056 3.71569 52.5458 3.71503C52.857 3.71438 52.8727 3.69962 52.8854 3.26474C52.8978 2.84561 52.9055 2.42583 52.9024 2.00637C52.901 1.80041 52.95 1.71186 53.108 1.70629C53.9617 1.67677 54.8149 1.64004 55.668 1.59937C55.8231 1.59183 55.8841 1.66431 55.8808 1.88076C55.8728 2.40254 55.8824 2.92465 55.8767 3.44676C55.8742 3.64386 55.9269 3.72093 56.0742 3.71765C56.4442 3.70913 56.8146 3.7147 57.1849 3.71503Z" fill="url(#paint3_linear_16_368)"/>
<path d="M16.3632 5.07834C16.4373 4.93896 16.4958 4.77629 16.5879 4.6638C17.0411 4.11021 17.5999 3.84325 18.1852 3.7242C18.7054 3.6186 19.2373 3.61926 19.7636 3.56645C19.9647 3.54645 20.0424 3.63893 20.0381 3.93082C20.0248 4.83106 20.0337 5.73196 20.0332 6.63286C20.033 7.05232 20.0016 7.0474 19.6863 6.98903C19.1653 6.89228 18.6381 6.80176 18.114 6.80471C17.6739 6.80734 17.2559 7.02182 16.9119 7.43013C16.4896 7.93092 16.3861 8.59963 16.3808 9.31458C16.3755 10.0413 16.374 10.7681 16.3818 11.4948C16.3845 11.7352 16.3223 11.8146 16.1449 11.813C15.2761 11.8035 14.407 11.8038 13.5379 11.8126C13.3642 11.8146 13.2979 11.7457 13.2983 11.5004C13.3032 9.01318 13.3032 6.52595 13.2988 4.03871C13.2983 3.79111 13.3539 3.69731 13.5451 3.69993C14.3763 3.71141 15.2075 3.70944 16.0387 3.70092C16.2053 3.69895 16.2703 3.77208 16.2637 4.00002C16.2543 4.33191 16.2613 4.66446 16.2613 4.99668C16.2953 5.0239 16.3292 5.05112 16.3632 5.07834Z" fill="white"/>
<path d="M74.7767 5.04159C74.851 4.98092 74.8889 4.96452 74.9111 4.92976C75.4243 4.13053 76.1175 3.83143 76.8538 3.69696C77.3306 3.61006 77.8163 3.61334 78.2977 3.56644C78.5 3.54676 78.555 3.66253 78.5522 3.92522C78.5423 4.83596 78.549 5.74703 78.5481 6.6581C78.5478 7.04312 78.5138 7.05329 78.2272 6.99524C77.7659 6.90177 77.3012 6.80568 76.8362 6.78764C76.3125 6.76764 75.8198 6.96376 75.414 7.44848C74.9995 7.94337 74.9019 8.6065 74.8961 9.30964C74.8901 10.0361 74.8896 10.7632 74.8969 11.4896C74.899 11.7244 74.8454 11.8149 74.6637 11.813C73.7873 11.8031 72.9107 11.8038 72.0341 11.8126C71.8619 11.8143 71.814 11.7244 71.8142 11.505C71.8178 9.00759 71.8183 6.51019 71.814 4.01279C71.8135 3.76682 71.8842 3.69893 72.0566 3.7009C72.8878 3.70943 73.719 3.71139 74.5502 3.69959C74.7373 3.69696 74.7853 3.79732 74.7788 4.02591C74.7698 4.34796 74.7767 4.67067 74.7767 5.04159Z" fill="url(#paint4_linear_16_368)"/>
<path d="M34.7279 6.64191C34.2897 6.64191 33.8518 6.63469 33.4139 6.64584C33.2565 6.64978 33.2022 6.57927 33.2036 6.36478C33.2097 5.36221 33.2099 4.35964 33.2032 3.35708C33.2015 3.13734 33.2609 3.07864 33.4147 3.07995C34.2907 3.08782 35.1671 3.0875 36.0432 3.08061C36.2105 3.0793 36.2863 3.13341 36.2837 3.38889C36.274 4.3708 36.2747 5.35303 36.2829 6.33494C36.2851 6.5855 36.2125 6.64978 36.042 6.64551C35.6041 6.63469 35.1661 6.64191 34.7279 6.64191Z" fill="white"/>
<path d="M34.7243 11.8086C34.2861 11.8086 33.8479 11.8007 33.41 11.8128C33.2492 11.8171 33.2022 11.7394 33.2036 11.5285C33.2099 10.5462 33.2097 9.56401 33.2039 8.58178C33.2027 8.35614 33.2623 8.27611 33.4289 8.27742C34.2975 8.28464 35.1664 8.28497 36.0349 8.27742C36.2235 8.27578 36.2846 8.37581 36.2829 8.6244C36.2759 9.58598 36.2759 10.5479 36.2829 11.5098C36.2846 11.7367 36.2288 11.8164 36.0613 11.8122C35.6159 11.8013 35.17 11.8086 34.7243 11.8086Z" fill="white"/>
</g>
<defs>
<linearGradient id="paint0_linear_16_368" x1="42.8252" y1="11.838" x2="44.2275" y2="-0.109881" gradientUnits="userSpaceOnUse">
<stop offset="0.000861673" stop-color="#0073D8"/>
<stop offset="0.2843" stop-color="#0071D8"/>
<stop offset="1" stop-color="#0017AA"/>
</linearGradient>
<linearGradient id="paint1_linear_16_368" x1="83.2739" y1="11.865" x2="84.1049" y2="3.32684" gradientUnits="userSpaceOnUse">
<stop offset="0.000861673" stop-color="#0073D8"/>
<stop offset="0.2843" stop-color="#0071D8"/>
<stop offset="1" stop-color="#0017AA"/>
</linearGradient>
<linearGradient id="paint2_linear_16_368" x1="63.6495" y1="11.9294" x2="64.4756" y2="3.33085" gradientUnits="userSpaceOnUse">
<stop offset="0.000861673" stop-color="#0073D8"/>
<stop offset="0.2843" stop-color="#0071D8"/>
<stop offset="1" stop-color="#0017AA"/>
</linearGradient>
<linearGradient id="paint3_linear_16_368" x1="54.0332" y1="11.8251" x2="55.8396" y2="1.68356" gradientUnits="userSpaceOnUse">
<stop offset="0.000861673" stop-color="#0073D8"/>
<stop offset="0.2843" stop-color="#0071D8"/>
<stop offset="1" stop-color="#0017AA"/>
</linearGradient>
<linearGradient id="paint4_linear_16_368" x1="74.3766" y1="11.7449" x2="75.6211" y2="3.56397" gradientUnits="userSpaceOnUse">
<stop offset="0.000861673" stop-color="#0073D8"/>
<stop offset="0.2843" stop-color="#0071D8"/>
<stop offset="1" stop-color="#0017AA"/>
</linearGradient>
<clipPath id="clip0_16_368">
<rect width="90" height="12" fill="white"/>
</clipPath>
</defs>
</svg>
