<svg width="175" height="35" viewBox="0 0 175 35" fill="none" xmlns="http://www.w3.org/2000/svg">
<g clip-path="url(#clip0_29_108)">
<path d="M34.6501 17.5C34.6501 8.02829 26.9718 0.349976 17.5001 0.349976C8.02841 0.349976 0.350098 8.02829 0.350098 17.5C0.350098 26.9717 8.02841 34.65 17.5001 34.65C26.9718 34.65 34.6501 26.9717 34.6501 17.5Z" fill="#F2F2F2"/>
<path d="M34.6501 17.5C34.6501 8.02829 26.9718 0.349976 17.5001 0.349976C8.02841 0.349976 0.350098 8.02829 0.350098 17.5C0.350098 26.9717 8.02841 34.65 17.5001 34.65C26.9718 34.65 34.6501 26.9717 34.6501 17.5Z" stroke="#F2F2F2"/>
<path d="M26.25 10.5H8.75V28.673H26.25V10.5Z" fill="#F2F2F2"/>
<path d="M8.75 10.5H26.25V19.4123C26.25 21.6976 25.0325 23.8046 23.0529 24.9516L17.5 28.2226L11.953 24.9516C9.97339 23.8132 8.75847 21.6976 8.75847 19.4123V10.5H8.75Z" fill="#FFDD2D"/>
<path fill-rule="evenodd" clip-rule="evenodd" d="M13.4614 15.1898V17.9594C13.8437 17.5347 14.5319 17.2458 15.3136 17.2458H16.1716V20.4658C16.1716 21.3238 15.9422 22.0715 15.5939 22.4878H19.4047C19.0564 22.0715 18.846 21.3238 18.846 20.4658V17.2458H19.6806C20.4707 17.2458 21.1645 17.5347 21.5383 17.9594V15.1898H13.4614Z" fill="#333333"/>
<path d="M69.6501 17.5C69.6501 8.02829 61.9718 0.349976 52.5001 0.349976C43.0284 0.349976 35.3501 8.02829 35.3501 17.5C35.3501 26.9717 43.0284 34.65 52.5001 34.65C61.9718 34.65 69.6501 26.9717 69.6501 17.5Z" fill="#F2F2F2"/>
<path d="M69.6501 17.5C69.6501 8.02829 61.9718 0.349976 52.5001 0.349976C43.0284 0.349976 35.3501 8.02829 35.3501 17.5C35.3501 26.9717 43.0284 34.65 52.5001 34.65C61.9718 34.65 69.6501 26.9717 69.6501 17.5Z" stroke="#F2F2F2"/>
<path d="M52.2727 8.61328C53.4822 8.61328 53.8622 9.48079 54.1811 10.347C54.3151 10.7148 57.4581 19.3221 57.5526 19.5804C57.5778 19.6525 57.5608 19.7708 57.4499 19.8136C57.3385 19.8558 55.7054 20.4908 55.615 20.5248C55.5245 20.5595 55.4232 20.5092 55.3906 20.4187C55.3566 20.3297 54.6788 18.4532 54.6026 18.2438H49.944C49.8707 18.4532 49.1847 20.3337 49.154 20.4187C49.1228 20.5051 49.0256 20.5635 48.929 20.5248C48.8324 20.4867 47.1933 19.8517 47.0954 19.8136C47.0015 19.7769 46.9588 19.6702 46.9914 19.5804C47.1069 19.2582 50.2024 10.7889 50.3602 10.347C50.6675 9.49374 51.0605 8.61328 52.2727 8.61328ZM46.7425 24.0146C46.6446 24.0146 46.5664 24.0962 46.5664 24.1954V26.2072C46.5664 26.3065 46.6446 26.3867 46.7425 26.3867H57.798C57.898 26.3867 57.9762 26.3065 57.9762 26.2072V24.1954C57.9762 24.0962 57.898 24.0146 57.798 24.0146H46.7425ZM52.2618 11.4239L50.6872 16.1525H53.8622L52.2822 11.4239H52.2618Z" fill="#EE2A23"/>
<path d="M104.65 17.5C104.65 8.02829 96.9718 0.349976 87.5001 0.349976C78.0284 0.349976 70.3501 8.02829 70.3501 17.5C70.3501 26.9717 78.0284 34.65 87.5001 34.65C96.9718 34.65 104.65 26.9717 104.65 17.5Z" fill="#F2F2F2"/>
<path d="M104.65 17.5C104.65 8.02829 96.9718 0.349976 87.5001 0.349976C78.0284 0.349976 70.3501 8.02829 70.3501 17.5C70.3501 26.9717 78.0284 34.65 87.5001 34.65C96.9718 34.65 104.65 26.9717 104.65 17.5Z" stroke="#F2F2F2"/>
<path d="M78.75 16.7705V26.25H81.6669V16.7705C81.6669 13.9516 83.9517 11.6656 86.772 11.6656H93.3345V15.3113C93.3345 18.1301 91.0497 20.4162 88.2294 20.4162H83.125V23.3331H88.2294C92.6597 23.3331 96.2514 19.7417 96.2514 15.3113V9.47891C96.2514 9.07599 95.9252 8.75 95.5227 8.75H86.772C82.3417 8.75 78.75 12.3414 78.75 16.7718V16.7705Z" fill="#FF0078"/>
<path d="M139.65 17.5C139.65 8.02829 131.972 0.349976 122.5 0.349976C113.028 0.349976 105.35 8.02829 105.35 17.5C105.35 26.9717 113.028 34.65 122.5 34.65C131.972 34.65 139.65 26.9717 139.65 17.5Z" fill="#F2F2F2"/>
<path d="M139.65 17.5C139.65 8.02829 131.972 0.349976 122.5 0.349976C113.028 0.349976 105.35 8.02829 105.35 17.5C105.35 26.9717 113.028 34.65 122.5 34.65C131.972 34.65 139.65 26.9717 139.65 17.5Z" stroke="#F2F2F2"/>
<path fill-rule="evenodd" clip-rule="evenodd" d="M113.75 17.5C113.75 12.6713 117.66 8.76078 122.49 8.75V11.9151C119.41 11.9151 116.915 14.4213 116.915 17.5C116.915 20.5895 119.421 23.0849 122.5 23.0849C125.568 23.0849 128.085 20.6111 128.085 17.4784H131.25C131.25 22.3287 127.34 26.25 122.5 26.25C117.66 26.25 113.75 22.3287 113.75 17.5Z" fill="#00684B"/>
<path d="M118.643 17.5C118.643 15.3611 120.383 13.6219 122.521 13.6219C124.66 13.6219 126.399 15.3611 126.399 17.5C126.399 19.6497 124.66 21.3781 122.521 21.3781C120.383 21.3781 118.643 19.6497 118.643 17.5Z" fill="#81BA25"/>
<path d="M125.211 12.5848C125.211 11.3534 126.205 10.3595 127.436 10.3595C128.668 10.3595 129.662 11.3534 129.662 12.5848C129.662 13.8163 128.668 14.8101 127.436 14.8101C126.205 14.8101 125.211 13.8163 125.211 12.5848Z" fill="#00684B"/>
<path d="M173.95 17.5C173.95 8.41496 166.585 1.05005 157.5 1.05005C148.415 1.05005 141.05 8.41496 141.05 17.5C141.05 26.5851 148.415 33.9501 157.5 33.9501C166.585 33.9501 173.95 26.5851 173.95 17.5Z" stroke="#F2F2F2" stroke-width="3"/>
<path d="M154.651 19.1625V21.5907H153.42V19.1625H151.151V17.9484H153.42V15.5586H154.651V17.9484H156.926V19.1625H154.651ZM161.12 21.8586C160.209 21.8586 159.468 21.6454 158.9 21.2188C158.331 20.7922 158.047 20.2417 158.047 19.5672C158.047 19.0568 158.211 18.6175 158.539 18.2492C158.87 17.8774 159.304 17.6404 159.841 17.5383V17.5109C159.392 17.3943 159.033 17.1756 158.763 16.8547C158.493 16.5302 158.359 16.1547 158.359 15.7282C158.359 15.1266 158.617 14.6307 159.135 14.2407C159.657 13.8469 160.318 13.65 161.12 13.65C161.926 13.65 162.586 13.8469 163.1 14.2407C163.618 14.6307 163.876 15.1284 163.876 15.7336C163.876 16.1565 163.742 16.5284 163.472 16.8492C163.206 17.17 162.849 17.3907 162.4 17.5109V17.5383C162.94 17.644 163.374 17.8829 163.701 18.2547C164.033 18.623 164.199 19.0605 164.199 19.5672C164.199 20.2417 163.913 20.7922 163.341 21.2188C162.768 21.6454 162.028 21.8586 161.12 21.8586ZM159.961 20.4094C160.263 20.6573 160.65 20.7813 161.12 20.7813C161.591 20.7813 161.977 20.6573 162.279 20.4094C162.582 20.1615 162.734 19.8461 162.734 19.4633C162.734 19.0768 162.582 18.7597 162.279 18.5117C161.981 18.2638 161.594 18.1399 161.12 18.1399C160.65 18.1399 160.263 18.2657 159.961 18.5172C159.658 18.7651 159.507 19.0805 159.507 19.4633C159.507 19.8461 159.658 20.1615 159.961 20.4094ZM161.12 17.0625C161.518 17.0625 161.844 16.9532 162.099 16.7344C162.354 16.512 162.482 16.2313 162.482 15.8922C162.482 15.5495 162.354 15.2688 162.099 15.05C161.844 14.8276 161.518 14.7164 161.12 14.7164C160.719 14.7164 160.391 14.8276 160.136 15.05C159.881 15.2688 159.753 15.5495 159.753 15.8922C159.753 16.2313 159.881 16.512 160.136 16.7344C160.391 16.9532 160.719 17.0625 161.12 17.0625Z" fill="#0071D8"/>
</g>
<defs>
<clipPath id="clip0_29_108">
<rect width="175" height="35" fill="white"/>
</clipPath>
</defs>
</svg>
