<svg width="19" height="19" viewBox="0 0 19 19" fill="none" xmlns="http://www.w3.org/2000/svg">
<path d="M9.49967 1.5835C5.13759 1.5835 1.58301 5.13808 1.58301 9.50016C1.58301 13.8622 5.13759 17.4168 9.49967 17.4168C13.8618 17.4168 17.4163 13.8622 17.4163 9.50016C17.4163 5.13808 13.8618 1.5835 9.49967 1.5835ZM12.9434 12.3264C12.8326 12.5164 12.6347 12.6193 12.4288 12.6193C12.3259 12.6193 12.223 12.5956 12.128 12.5322L9.67384 11.0677C9.06426 10.7035 8.61301 9.90391 8.61301 9.19933V5.9535C8.61301 5.62891 8.88217 5.35975 9.20676 5.35975C9.53134 5.35975 9.80051 5.62891 9.80051 5.9535V9.19933C9.80051 9.48433 10.038 9.90391 10.2834 10.0464L12.7376 11.511C13.0226 11.6772 13.1176 12.0414 12.9434 12.3264Z" fill="#0071D8"/>
</svg>
