<svg width="30" height="30" viewBox="0 0 30 30" fill="none" xmlns="http://www.w3.org/2000/svg">
<g clip-path="url(#clip0_22_114)">
<path d="M14.9995 0H14.9994C6.7152 0 -0.000488281 6.71568 -0.000488281 14.9999V15C-0.000488281 23.2842 6.7152 29.9999 14.9994 29.9999H14.9995C23.2837 29.9999 29.9994 23.2842 29.9994 15V14.9999C29.9994 6.71568 23.2837 0 14.9995 0Z" fill="#292929"/>
<path fill-rule="evenodd" clip-rule="evenodd" d="M22.1942 11.4094C22.3057 11.0379 22.1942 10.7778 21.6741 10.7778H19.9404C19.4945 10.7778 19.2964 11.0131 19.1849 11.2732C19.1849 11.2732 18.3057 13.428 17.0549 14.815C16.6462 15.2237 16.4729 15.3475 16.25 15.3475C16.1385 15.3475 15.9775 15.2237 15.9775 14.8521V11.4094C15.9775 10.9636 15.8537 10.7778 15.4822 10.7778H12.7577C12.4853 10.7778 12.3119 10.9884 12.3119 11.1741C12.3119 11.5952 12.9311 11.6942 13.0054 12.8583V15.4094C13.0054 15.9667 12.9063 16.0658 12.6834 16.0658C12.1014 16.0658 10.6648 13.911 9.82271 11.4342C9.64934 10.976 9.48835 10.7778 9.04253 10.7778H7.30878C6.81343 10.7778 6.71436 11.0131 6.71436 11.2732C6.71436 11.7314 7.29639 14.01 9.45119 17.0193C10.8877 19.075 12.9063 20.1896 14.7391 20.1896C15.8413 20.1896 15.9775 19.9419 15.9775 19.5209V17.9605C15.9775 17.4651 16.0766 17.3661 16.4357 17.3661C16.6958 17.3661 17.1292 17.4899 18.1571 18.4806C19.3336 19.6571 19.5317 20.1896 20.188 20.1896H21.9218C22.4171 20.1896 22.6648 19.9419 22.5162 19.4589C22.3552 18.976 21.7979 18.2701 21.0549 17.428C20.6462 16.945 20.0394 16.4373 19.8661 16.1772C19.606 15.8428 19.6803 15.6942 19.8661 15.4094C19.8661 15.397 21.9837 12.4249 22.1942 11.4094Z" fill="white"/>
</g>
<defs>
<clipPath id="clip0_22_114">
<rect width="30" height="30" fill="white"/>
</clipPath>
</defs>
</svg>
